<svg width="762" height="638" viewBox="0 0 762 638" fill="none" xmlns="http://www.w3.org/2000/svg">
<g filter="url(#filter0_d_106_35)">
<path d="M4 629.2V1.75998L533.76 0C603.573 0 655.2 14.6667 688.64 44C722.667 72.7467 739.68 116.16 739.68 174.24C739.68 232.32 720.32 274.853 681.6 301.84C707.413 315.92 726.48 334.693 738.8 358.16C751.12 381.04 757.28 410.667 757.28 447.04C757.28 506.293 740.267 551.467 706.24 582.56C672.8 613.067 621.173 628.32 551.36 628.32L4 629.2ZM517.04 112.64H144.8V253.44H517.04C570.427 253.44 597.12 229.387 597.12 181.28C597.12 135.52 570.427 112.64 517.04 112.64ZM534.64 366.08H144.8V515.68H534.64C588.027 515.68 614.72 490.453 614.72 440C614.72 390.72 588.027 366.08 534.64 366.08Z" fill="black"/>
</g>
<defs>
<filter id="filter0_d_106_35" x="0" y="0" width="761.28" height="637.2" filterUnits="userSpaceOnUse" color-interpolation-filters="sRGB">
<feFlood flood-opacity="0" result="BackgroundImageFix"/>
<feColorMatrix in="SourceAlpha" type="matrix" values="0 0 0 0 0 0 0 0 0 0 0 0 0 0 0 0 0 0 127 0" result="hardAlpha"/>
<feOffset dy="4"/>
<feGaussianBlur stdDeviation="2"/>
<feComposite in2="hardAlpha" operator="out"/>
<feColorMatrix type="matrix" values="0 0 0 0 0 0 0 0 0 0 0 0 0 0 0 0 0 0 0.25 0"/>
<feBlend mode="normal" in2="BackgroundImageFix" result="effect1_dropShadow_106_35"/>
<feBlend mode="normal" in="SourceGraphic" in2="effect1_dropShadow_106_35" result="shape"/>
</filter>
</defs>
</svg>
